/vscmnt/brussel_pixiu_data/_data_brussel/112/vsc11236/PredSimResults/SUBJ11mtu3D/worker7.mot
version=1
nRows=9
nColumns=50
inDegrees=yes
endheader
                time	         pelvis_tilt	         pelvis_list	     pelvis_rotation	           pelvis_tx	           pelvis_ty	           pelvis_tz	       hip_flexion_r	     hip_adduction_r	      hip_rotation_r	        knee_angle_r	       ankle_angle_r	         mtp_angle_r	       hip_flexion_l	     hip_adduction_l	      hip_rotation_l	        knee_angle_l	       ankle_angle_l	         mtp_angle_l	    lumbar_extension	      lumbar_bending	     lumbar_rotation	 ercspn_r/activation	 intobl_r/activation	 extobl_r/activation	    abd_r/activation	    add_r/activation	hamstrings_r/activation	bifemsh_r/activation	glut_max_r/activation	iliopsoas_r/activation	rect_fem_r/activation	  vasti_r/activation	gastroc_r/activation	 soleus_r/activation	tib_ant_r/activation	 ercspn_l/activation	 intobl_l/activation	 extobl_l/activation	    abd_l/activation	    add_l/activation	hamstrings_l/activation	bifemsh_l/activation	glut_max_l/activation	iliopsoas_l/activation	rect_fem_l/activation	  vasti_l/activation	gastroc_l/activation	 soleus_l/activation	tib_ant_l/activation	
          0.00000000	         -3.37669778	         -0.71578030	          6.15644902	          0.00000000	          0.94125581	         -0.01009916	         30.93444432	         -3.02176307	         -5.09135220	         -9.48764619	          1.15257704	          0.26584910	        -13.96630985	         -2.94329147	         -2.18398979	        -11.73242022	         11.35787496	         30.25501441	        -14.10004412	         -1.03176464	         -4.77378838	          0.04812609	          0.17512111	          0.03759258	          0.01000006	          0.20103418	          0.04941620	          0.15979329	          0.09863920	          0.07222826	          0.03404654	          0.01000047	          0.01000065	          0.01000017	          0.44772252	          0.04120890	          0.01000045	          0.01000034	          0.03851026	          0.01514543	          0.01389584	          0.17173954	          0.01881249	          0.01499617	          0.01223384	          0.01000075	          0.12886313	          0.28019279	          0.01246536	
          0.01339299	         -3.46969708	         -0.74613501	          6.28457409	          0.01882981	          0.93935945	         -0.00855423	         30.61043052	         -2.89919014	         -5.28964216	        -10.69466406	          0.65526686	          0.21685620	        -14.60473793	         -3.21810338	         -2.46731646	        -12.36235979	         10.39010852	         32.05896863	        -13.64125055	         -0.65214483	         -5.09708757	          0.03934429	          0.14316455	          0.03073259	          0.05016504	          0.17632050	          0.05859970	          0.13063457	          0.11665466	          0.05904785	          0.02783394	          0.01000031	          0.01223280	          0.01223204	          0.50231741	          0.03369091	          0.01000042	          0.01000194	          0.03148281	          0.01238335	          0.03278097	          0.14040040	          0.01658917	          0.01226089	          0.01000240	          0.01125779	          0.10534794	          0.25609329	          0.01019069	
          0.02678597	         -3.54495986	         -0.77037550	          6.38627170	          0.03787406	          0.93784419	         -0.00691879	         30.27484733	         -2.79502614	         -5.49451413	        -11.93032887	          0.03628909	          0.20589358	        -15.07033910	         -3.49801736	         -2.76653278	        -13.31961716	          9.26811988	         33.91206180	        -13.17115739	         -0.28138249	         -5.40215434	          0.04071313	          0.11703948	          0.02512443	          0.10095296	          0.22029505	          0.04876919	          0.10679651	          0.13481192	          0.04827265	          0.02275504	          0.01000041	          0.01000072	          0.01000010	          0.56936952	          0.05706016	          0.01000023	          0.01000063	          0.02573775	          0.01012468	          0.02680051	          0.11478009	          0.01356217	          0.01003868	          0.01000631	          0.01474968	          0.08612377	          0.23057514	          0.01000013	
          0.04017896	         -3.60208317	         -0.77697048	          6.45783801	          0.05685648	          0.93688599	         -0.00519607	         30.06210649	         -2.71616625	         -5.71453343	        -13.38725547	         -0.59077428	          0.15832050	        -15.26841713	         -3.77230648	         -3.07033100	        -14.73333448	          7.98179641	         35.78017226	        -12.72387194	          0.06702154	         -5.68338662	          0.05528285	          0.09568179	          0.02053967	          0.13636619	          0.28210284	          0.04777233	          0.08730836	          0.14428294	          0.03946374	          0.01860297	          0.04062984	          0.01000067	          0.01000030	          0.60870365	          0.08312370	          0.01000035	          0.01000044	          0.02104106	          0.07926291	          0.02191621	          0.09383506	          0.01108813	          0.01000460	          0.01000406	          0.01434177	          0.07040767	          0.19237823	          0.01000015	
          0.05357194	         -3.64103910	         -0.76558939	          6.50027855	          0.07563806	          0.93659149	         -0.00341449	         29.94172017	         -2.65427388	         -5.91171884	        -15.07738430	         -0.85462205	          0.10197994	        -15.10532105	         -4.04268496	         -3.37876006	        -16.75182686	          6.55917977	         37.55065914	        -12.31084335	          0.39428041	         -5.93641316	          0.04901522	          0.07822151	          0.01679156	          0.16164701	          0.32341073	          0.04795566	          0.07137655	          0.16202692	          0.03226232	          0.01520859	          0.08212666	          0.01000070	          0.01000024	          0.60796473	          0.11394590	          0.01000039	          0.01000050	          0.01720143	          0.16239364	          0.01792252	          0.07671225	          0.01000033	          0.01015963	          0.01000189	          0.01172519	          0.05755948	          0.15727248	          0.01000011	
          0.06696493	         -3.66374807	         -0.73882074	          6.51126306	          0.09405240	          0.93707253	         -0.00160482	         29.82514126	         -2.58955838	         -6.04345612	        -16.84020505	         -0.68617549	          0.05204678	        -14.47912256	         -4.31442636	         -3.70421172	        -19.52086532	          5.00666638	         39.06190460	        -11.94574330	          0.70497680	         -6.15476899	          0.04007273	          0.06394744	          0.01372742	          0.17558716	          0.35678331	          0.04881853	          0.05835215	          0.16620721	          0.02637503	          0.01243367	          0.10074609	          0.01000053	          0.01000014	          0.56308420	          0.13352056	          0.01000052	          0.01000052	          0.01406248	          0.21675636	          0.04018360	          0.06271445	          0.01000017	          0.01224700	          0.01000053	          0.01000015	          0.04705587	          0.12857291	          0.01000033	
          0.08035791	         -3.67122178	         -0.69544331	          6.48955853	          0.11199253	          0.93831702	          0.00020259	         29.64725519	         -2.51199635	         -6.08954517	        -18.54612314	         -0.11264316	          0.03851236	        -13.33944955	         -4.59438844	         -4.08216993	        -23.11314408	          3.43240582	         39.88266737	        -11.63595465	          0.99953686	         -6.33460403	          0.03276058	          0.05227814	          0.01122247	          0.18511073	          0.37322018	          0.05357131	          0.04770481	          0.14918442	          0.02156207	          0.01016533	          0.12347266	          0.01000049	          0.01000014	          0.47947528	          0.14137467	          0.01000080	          0.01000047	          0.01149634	          0.25371191	          0.04604631	          0.05127135	          0.01000015	          0.01001845	          0.01000049	          0.01000014	          0.03846899	          0.10511053	          0.01000017	
          0.09375090	         -3.66473059	         -0.62563160	          6.43115649	          0.12943389	          0.94027076	          0.00197836	         29.31794839	         -2.42177832	         -6.04963946	        -20.01030279	          0.74844416	          0.13720472	        -11.69072152	         -4.88882823	         -4.51561552	        -27.50608147	          1.85582583	         39.68889957	        -11.38089693	          1.26907464	         -6.47097695	          0.02678252	          0.04273831	          0.01000022	          0.18879087	          0.35607851	          0.05778300	          0.03900080	          0.12450631	          0.01762740	          0.01000120	          0.16288754	          0.01000094	          0.01000023	          0.39210136	          0.12747442	          0.01000075	          0.01000181	          0.01000006	          0.29406642	          0.05012472	          0.04192419	          0.01000012	          0.01000374	          0.01000030	          0.01000007	          0.03144907	          0.08592964	          0.01000018	
          0.10714388	         -3.64717667	         -0.51438523	          6.32747589	          0.14635887	          0.94289532	          0.00368217	         28.73578969	         -2.33000477	         -5.94754311	        -21.00589101	          1.64618582	          0.37800588	         -9.58783471	         -5.19044872	         -4.98532824	        -32.50855605	          0.04216839	         38.57502180	        -11.18182767	          1.50179276	         -6.55418932	          0.02189535	          0.03493933	          0.01000041	          0.17383780	          0.29929435	          0.06441557	          0.03188631	          0.10178636	          0.01441076	          0.01000086	          0.20308005	          0.01000056	          0.01000011	          0.32959919	          0.10789411	          0.02348467	          0.02472371	          0.01000009	          0.30699607	          0.04097902	          0.05361999	          0.01000016	          0.01000203	          0.01000021	          0.01000004	          0.02571018	          0.07024893	          0.01824991	
